<svg id="activity_icon" xmlns="http://www.w3.org/2000/svg" viewBox="0 0 28.297 51.838"><defs><style>.cls-1{fill:#4b2e83;}</style></defs><title>Tours_ActivityLevel_Icon</title><circle class="cls-1" cx="17.361" cy="5.586" r="4.504" transform="translate(-1.553 1.986) rotate(-9.897)"/><path class="cls-1" d="M10.126,37.481c-1.4,5.854-7.34,10.7-7.34,10.7l3.242,2.556s5.642-4.269,7.9-8.845a16.644,16.644,0,0,0,.807-2.038,56.6,56.6,0,0,0-4.141-4.8C10.457,35.916,10.3,36.747,10.126,37.481Z" transform="translate(-0.852 -1.081)"/><path class="cls-1" d="M18.185,24.717a20.725,20.725,0,0,0,9.927,6.433l1.037-2.576s-4.868-3.2-7.282-6.308c-1.006-1.3-2.669-6.315-2.986-7.288-.009-.031-.02-.061-.03-.092l-.028-.086c-.006-.015-.013-.03-.019-.044a4.071,4.071,0,0,0-4.1-2.718h-.078l-.042.006a4.108,4.108,0,0,0-.531.078,16.005,16.005,0,0,0-9.8,5.528c-1.965,2.307-3.4,8.791-3.4,8.791l2.892,1.28s1.694-6.143,4.3-7.855a15.119,15.119,0,0,1,2.48-1.248L9.47,28.724A4.109,4.109,0,0,0,9.5,29.789c0,.043.014.085.019.128,0,.018.005.036.009.054a2.972,2.972,0,0,0,.6,1.467l.072.079a4.158,4.158,0,0,0,.7.769,99.922,99.922,0,0,1,8.156,10.094c2.553,4.01,4.316,10.537,4.316,10.537L27.517,52s-2.472-9.219-4.556-13.214C21.8,36.553,19.444,32.839,17.6,30a4.123,4.123,0,0,0,.084-.421Z" transform="translate(-0.852 -1.081)"/></svg>