<?xml version="1.0" encoding="UTF-8"?>
<svg id="Layer_1" xmlns="http://www.w3.org/2000/svg" version="1.1" viewBox="0 0 108.7 38.6">
  <!-- Generator: Adobe Illustrator 29.5.1, SVG Export Plug-In . SVG Version: 2.1.0 Build 141)  -->
  <defs>
    <style>
      .st0 {
        fill: #fff;
      }
    </style>
  </defs>
  <path class="st0" d="M4.5,8.2c-.4,1.4-.8,2.9-1.1,4.4l1.1,4.1.9,3.9H1.3c-.5,1.6-.8,3.3-1.3,4.8h6.7l1.2,4.5h5.8v-.3L7.7,8.2h-3.2Z"/>
  <path class="st0" d="M22,8.2h-6.1v21.7h13.6v-5h-7.6V8.2h0Z"/>
  <path class="st0" d="M44.1,21.2c0,1.4-.2,2.3-.8,3s-1.4,1-2.6,1-2-.3-2.6-1c-.5-.7-.8-1.7-.8-3v-12.9h-5.9v12.9c0,1.5.2,2.9.5,4s.8,2,1.5,2.8c.8.8,1.7,1.3,2.9,1.7,1.2.4,2.6.6,4.4.6s3.2-.2,4.4-.5c1.2-.4,2.1-.9,2.9-1.7s1.2-1.7,1.5-2.9.5-2.5.5-4v-12.9h-5.9v12.9h0Z"/>
  <path class="st0" d="M66.3,17.2l-.9,4.2h-.2l-.9-4.2-3-9h-8.4v21.7h5.4v-14.7h.2l1.4,5.2,2.8,8.5h4.8l2.9-8.5,1.4-5.2h.2v14.7h5.4V8.2h-8.4l-3,9h0Z"/>
  <path class="st0" d="M94.2,20.1h-.3l-1.4-2.3-7-9.5h-4.8v21.7h5.2v-12h.3l1.6,2.6,6.8,9.4h4.7V8.2h-5.2v11.9h0Z"/>
  <path class="st0" d="M108.6,8.2h-6.1v21.7h6.1V8.2Z"/>
</svg>