<?xml version="1.0" encoding="utf-8"?>
<!-- Generator: Adobe Illustrator 16.0.4, SVG Export Plug-In . SVG Version: 6.00 Build 0)  -->
<!DOCTYPE svg PUBLIC "-//W3C//DTD SVG 1.1//EN" "http://www.w3.org/Graphics/SVG/1.1/DTD/svg11.dtd">
<svg version="1.1" id="Layer_1" xmlns="http://www.w3.org/2000/svg" xmlns:xlink="http://www.w3.org/1999/xlink" x="0px" y="0px"
	 width="143.62px" height="40.777px" viewBox="0 0 143.62 40.777" enable-background="new 0 0 143.62 40.777" xml:space="preserve">
<g>
	<path fill="#FFFFFF" d="M44.504,0v7.355h5.169l-5.771,21.478c0,0-7.062-28.435-7.163-28.833H29.27
		c-0.104,0.39-7.745,28.833-7.745,28.833L16.209,7.355h5.382V0H0v7.355h4.785c0,0,8.255,33.019,8.355,33.422h11.589
		c0.103-0.394,5.531-21.031,5.531-21.031s5.16,20.634,5.258,21.031h11.589c0.104-0.395,8.792-33.422,8.792-33.422h4.744V0H44.504z"
		/>
	<path fill="#FFFFFF" d="M64.324,37.124c0.286,0,0.347-0.036,0.249-0.356l-0.322-1.004c-0.172-0.532-0.333-1.042-0.446-1.302
		c-0.123,0.273-0.321,0.797-0.506,1.361l-0.31,0.93c-0.112,0.335-0.05,0.371,0.26,0.371H64.324z M63,37.78
		c-0.296,0-0.334,0.012-0.407,0.248l-0.458,1.436c-0.075,0.248-0.087,0.346-0.087,0.446c0,0.073,0.099,0.15,0.446,0.209l0.373,0.063
		c0.073,0.086,0.097,0.371-0.026,0.434c-0.434-0.024-0.927-0.024-1.448-0.039c-0.42,0-0.706,0.039-1.275,0.039
		c-0.137-0.072-0.125-0.336-0.036-0.434l0.333-0.036c0.296-0.038,0.544-0.137,0.755-0.62c0.209-0.496,0.433-1.09,0.767-1.982
		l1.114-3.018c0.285-0.779,0.521-1.215,0.484-1.572c0.593-0.139,1.052-0.744,1.076-0.744c0.161,0,0.236,0.062,0.286,0.248
		c0.098,0.357,0.247,0.818,0.557,1.694l1.684,4.854c0.259,0.742,0.37,1.029,0.829,1.102l0.47,0.074
		c0.075,0.062,0.099,0.361-0.012,0.434c-0.595-0.024-1.264-0.039-1.906-0.039c-0.62,0-1.102,0.015-1.671,0.039
		c-0.137-0.072-0.162-0.336-0.026-0.434l0.397-0.063c0.284-0.048,0.334-0.136,0.334-0.209c0-0.086-0.087-0.384-0.235-0.844
		l-0.334-1.062c-0.063-0.198-0.162-0.224-0.596-0.224H63z"/>
	<path fill="#FFFFFF" d="M71.047,40.777c-1.14,0-1.846-0.324-2.104-0.47c-0.236-0.271-0.396-1.164-0.396-2.008
		c0.085-0.158,0.371-0.173,0.469-0.036c0.247,0.803,1.078,1.942,2.129,1.942c0.917,0,1.337-0.629,1.337-1.249
		c0-1.001-0.94-1.599-1.685-1.97c-0.89-0.445-1.868-1.188-1.868-2.411c-0.012-1.399,1.078-2.366,2.874-2.366
		c0.407,0,0.915,0.049,1.41,0.199c0.16,0.049,0.271,0.073,0.42,0.098c0.1,0.273,0.221,0.941,0.221,1.771
		c-0.059,0.15-0.369,0.158-0.48,0.036c-0.211-0.629-0.744-1.534-1.635-1.534c-0.815,0-1.261,0.531-1.261,1.151
		c0,0.569,0.506,1.091,1.126,1.409l0.816,0.435c0.766,0.409,1.747,1.126,1.747,2.488C74.166,39.786,72.917,40.777,71.047,40.777"/>
	<path fill="#FFFFFF" d="M77.469,40.777c-1.139,0-1.844-0.324-2.104-0.47c-0.234-0.271-0.396-1.164-0.396-2.008
		c0.086-0.158,0.373-0.173,0.471-0.036c0.246,0.803,1.076,1.942,2.129,1.942c0.916,0,1.338-0.629,1.338-1.249
		c0-1.001-0.941-1.599-1.684-1.97c-0.893-0.445-1.869-1.188-1.869-2.411c-0.012-1.399,1.076-2.366,2.871-2.366
		c0.408,0,0.916,0.049,1.412,0.199c0.16,0.049,0.273,0.073,0.418,0.098c0.1,0.273,0.225,0.941,0.225,1.771
		c-0.062,0.15-0.369,0.158-0.482,0.036c-0.211-0.629-0.742-1.534-1.635-1.534c-0.816,0-1.262,0.531-1.262,1.151
		c0,0.569,0.506,1.091,1.127,1.409l0.816,0.435c0.766,0.409,1.744,1.126,1.744,2.488C80.588,39.786,79.338,40.777,77.469,40.777"/>
	<path fill="#FFFFFF" d="M85.936,32.78c-1.521,0-2.338,1.423-2.338,3.49c0,1.51,0.531,3.936,2.549,3.936
		c1.621,0,2.252-1.584,2.252-3.589C88.398,34.501,87.471,32.78,85.936,32.78 M90.381,36.456c0,2.7-1.809,4.321-4.471,4.321
		c-2.486,0-4.293-1.634-4.293-4.222c0-2.452,1.832-4.346,4.418-4.346C88.609,32.21,90.381,33.943,90.381,36.456"/>
	<path fill="#FFFFFF" d="M99.006,32.532c0,0.223,0.039,1.215,0.15,1.93c-0.051,0.15-0.383,0.201-0.471,0.088
		c-0.334-1.151-1.127-1.77-2.328-1.77c-1.375,0-2.848,1.177-2.848,3.64c0,2.462,1.426,3.786,2.908,3.786
		c1.5,0,2.193-1.077,2.527-1.918c0.1-0.099,0.396-0.062,0.471,0.086c-0.088,0.914-0.299,1.662-0.471,1.944
		c-0.67,0.185-1.547,0.459-2.514,0.459c-1.213,0-2.451-0.284-3.33-0.944c-0.891-0.677-1.572-1.706-1.572-3.242
		c0-1.508,0.645-2.573,1.5-3.279c0.877-0.728,2.141-1.102,3.428-1.102C97.721,32.21,98.637,32.507,99.006,32.532"/>
	<path fill="#FFFFFF" d="M102.904,38.772c0,1.16,0.074,1.248,0.645,1.347l0.348,0.063c0.1,0.074,0.086,0.361-0.012,0.432
		c-0.67-0.022-1.275-0.037-1.857-0.037c-0.594,0-1.213,0.015-1.881,0.037c-0.1-0.07-0.1-0.357,0-0.432l0.348-0.063
		c0.568-0.099,0.643-0.187,0.643-1.347v-4.558c0-1.163-0.074-1.246-0.643-1.349l-0.348-0.062c-0.1-0.075-0.1-0.358,0-0.433
		c0.668,0.023,1.287,0.037,1.881,0.037c0.582,0,1.201-0.014,1.869-0.037c0.1,0.074,0.1,0.357,0,0.433l-0.348,0.062
		c-0.57,0.103-0.645,0.186-0.645,1.349V38.772z"/>
	<path fill="#FFFFFF" d="M108.488,37.124c0.285,0,0.346-0.036,0.248-0.356l-0.322-1.004c-0.172-0.532-0.334-1.042-0.445-1.302
		c-0.125,0.273-0.32,0.797-0.508,1.361l-0.309,0.93c-0.113,0.335-0.051,0.371,0.26,0.371H108.488z M107.164,37.78
		c-0.297,0-0.336,0.012-0.408,0.248l-0.461,1.436c-0.072,0.248-0.084,0.346-0.084,0.446c0,0.073,0.1,0.15,0.445,0.209l0.371,0.063
		c0.074,0.086,0.1,0.371-0.025,0.434c-0.432-0.024-0.926-0.024-1.447-0.039c-0.42,0-0.705,0.039-1.273,0.039
		c-0.137-0.072-0.127-0.336-0.039-0.434l0.332-0.036c0.299-0.038,0.547-0.137,0.758-0.62c0.211-0.496,0.434-1.09,0.768-1.982
		l1.115-3.018c0.285-0.779,0.518-1.215,0.482-1.572c0.594-0.139,1.051-0.744,1.076-0.744c0.162,0,0.234,0.062,0.285,0.248
		c0.1,0.357,0.244,0.818,0.557,1.694l1.682,4.854c0.26,0.742,0.375,1.029,0.832,1.102l0.467,0.074c0.076,0.062,0.1,0.361-0.01,0.434
		c-0.594-0.024-1.264-0.039-1.906-0.039c-0.619,0-1.104,0.015-1.672,0.039c-0.137-0.072-0.16-0.336-0.023-0.434l0.396-0.063
		c0.283-0.048,0.334-0.136,0.334-0.209c0-0.086-0.086-0.384-0.234-0.844l-0.336-1.062c-0.062-0.198-0.16-0.224-0.596-0.224H107.164z
		"/>
	<path fill="#FFFFFF" d="M114.729,33.337c0-0.296,0-0.359-0.299-0.359h-0.768c-0.902,0-1.164,0.496-1.535,1.398
		c-0.148,0.074-0.383,0.051-0.455-0.111c0.256-0.854,0.318-1.622,0.404-2.104c0.051-0.036,0.113-0.063,0.176-0.063
		c0.059,0,0.123,0.015,0.172,0.05c0.064,0.211,0.1,0.26,1.041,0.26h4.604c0.816,0,1.002-0.012,1.115-0.27
		c0.049-0.025,0.086-0.04,0.16-0.04s0.162,0.05,0.184,0.089c-0.121,0.422-0.207,1.424-0.184,2.127
		c-0.062,0.113-0.396,0.137-0.459,0.038c-0.209-0.792-0.381-1.374-1.312-1.374h-0.74c-0.297,0-0.334,0.036-0.334,0.359v5.457
		c0,1.153,0.072,1.253,0.631,1.325l0.494,0.062c0.086,0.075,0.086,0.362,0,0.433c-0.803-0.022-1.424-0.037-1.979-0.037
		c-0.596,0-1.24,0.015-2.104,0.037c-0.1-0.07-0.1-0.357,0-0.433l0.555-0.062c0.557-0.061,0.633-0.172,0.633-1.325V33.337z"/>
	<path fill="#FFFFFF" d="M122.908,38.772c0,1.16,0.074,1.248,0.645,1.347l0.348,0.063c0.096,0.074,0.084,0.361-0.014,0.432
		c-0.67-0.022-1.275-0.037-1.857-0.037c-0.594,0-1.213,0.015-1.883,0.037c-0.098-0.07-0.098-0.357,0-0.432l0.348-0.063
		c0.57-0.099,0.645-0.187,0.645-1.347v-4.558c0-1.163-0.074-1.246-0.645-1.349l-0.348-0.062c-0.098-0.075-0.098-0.358,0-0.433
		c0.67,0.023,1.289,0.037,1.883,0.037c0.582,0,1.199-0.014,1.871-0.037c0.096,0.074,0.096,0.357,0,0.433l-0.348,0.062
		c-0.57,0.103-0.645,0.186-0.645,1.349V38.772z"/>
	<path fill="#FFFFFF" d="M129.309,32.78c-1.523,0-2.34,1.423-2.34,3.49c0,1.51,0.531,3.936,2.551,3.936
		c1.621,0,2.252-1.584,2.252-3.589C131.771,34.501,130.844,32.78,129.309,32.78 M133.752,36.456c0,2.7-1.807,4.321-4.471,4.321
		c-2.486,0-4.293-1.634-4.293-4.222c0-2.452,1.83-4.346,4.418-4.346C131.98,32.21,133.752,33.943,133.752,36.456"/>
	<path fill="#FFFFFF" d="M142.477,38.474c0,0.805,0,1.585,0.025,1.992c-0.086,0.15-0.432,0.285-0.73,0.285
		c-0.014,0-0.418-0.632-1.002-1.349l-2.857-3.54c-0.719-0.88-1.127-1.398-1.352-1.584c-0.061,0.126-0.061,0.334-0.061,0.791v2.4
		c0,1.004,0.047,1.933,0.186,2.266c0.111,0.262,0.395,0.346,0.717,0.397l0.346,0.05c0.1,0.098,0.076,0.361,0,0.434
		c-0.668-0.024-1.162-0.039-1.656-0.039c-0.459,0-0.916,0.015-1.387,0.039c-0.074-0.072-0.1-0.336,0-0.434l0.211-0.036
		c0.334-0.065,0.582-0.149,0.68-0.411c0.135-0.333,0.174-1.262,0.174-2.266v-3.141c0-0.684-0.014-0.881-0.086-1.055
		c-0.104-0.207-0.273-0.36-0.707-0.419l-0.346-0.05c-0.088-0.099-0.076-0.396,0.049-0.434c0.58,0.024,1.201,0.037,1.709,0.037
		c0.42,0,0.779-0.013,1.039-0.037c0.123,0.557,0.928,1.496,2.041,2.822l1.043,1.226c0.543,0.642,0.902,1.074,1.186,1.36
		c0.051-0.125,0.051-0.335,0.051-0.558v-1.706c0-1.004-0.051-1.932-0.188-2.266c-0.111-0.26-0.381-0.348-0.717-0.396l-0.332-0.05
		c-0.102-0.099-0.076-0.36,0-0.434c0.668,0.024,1.148,0.037,1.654,0.037c0.461,0,0.908-0.013,1.391-0.037
		c0.072,0.073,0.096,0.335,0,0.434l-0.225,0.037c-0.326,0.049-0.557,0.148-0.67,0.408c-0.135,0.334-0.186,1.262-0.186,2.266V38.474z
		"/>
	<path fill="#FFFFFF" d="M69.763,22.696c0.612,0,0.745-0.08,0.531-0.771l-0.69-2.154c-0.373-1.144-0.719-2.234-0.958-2.793
		c-0.265,0.584-0.691,1.701-1.09,2.924l-0.665,1.996c-0.238,0.719-0.107,0.799,0.559,0.799H69.763z M66.918,24.106
		c-0.637,0-0.718,0.024-0.877,0.529l-0.985,3.086c-0.158,0.533-0.186,0.745-0.186,0.957c0,0.161,0.212,0.32,0.958,0.454l0.798,0.132
		c0.158,0.186,0.211,0.798-0.054,0.93c-0.931-0.053-1.995-0.053-3.111-0.078c-0.903,0-1.515,0.078-2.739,0.078
		c-0.292-0.158-0.266-0.717-0.08-0.93l0.718-0.08c0.64-0.081,1.172-0.295,1.623-1.329c0.452-1.062,0.93-2.343,1.648-4.254
		l2.395-6.492c0.611-1.673,1.117-2.605,1.036-3.375c1.277-0.296,2.26-1.596,2.314-1.596c0.346,0,0.505,0.129,0.612,0.531
		c0.212,0.769,0.531,1.755,1.197,3.643l3.617,10.425c0.559,1.595,0.797,2.208,1.781,2.365l1.012,0.161
		c0.158,0.135,0.211,0.771-0.029,0.93c-1.275-0.053-2.711-0.078-4.096-0.078c-1.326,0-2.365,0.025-3.588,0.078
		c-0.292-0.158-0.347-0.717-0.053-0.93l0.851-0.132c0.612-0.107,0.718-0.293,0.718-0.454c0-0.188-0.186-0.823-0.505-1.809
		l-0.718-2.286c-0.134-0.425-0.346-0.478-1.277-0.478H66.918z"/>
	<path fill="#FFFFFF" d="M79.896,15.33c0-1.064,0-1.357-0.533-1.676l-0.451-0.266c-0.188-0.159-0.188-0.638,0-0.795
		c1.143-0.267,2.738-0.908,4.068-1.492c0.16,0,0.346,0.053,0.453,0.188c-0.055,1.088-0.082,2.206-0.082,3.883v11.86
		c0,1.858,0.107,2.072,1.037,2.179l0.453,0.055c0.213,0.159,0.213,0.771-0.025,0.93c-0.881-0.053-1.996-0.078-3.193-0.078
		c-1.143,0-2.26,0.025-3.189,0.078c-0.24-0.158-0.24-0.771-0.027-0.93l0.506-0.055c0.877-0.077,0.984-0.32,0.984-2.179V15.33z"/>
	<path fill="#FFFFFF" d="M97.793,26.604c0,1.569,0.08,2.262,0.719,2.262c0.346,0,0.744-0.106,1.062-0.215
		c0.24,0.056,0.266,1.012-0.078,1.148c-2.607,0.102-4.842,0.953-4.92,0.953c-0.188-0.027-0.293-0.158-0.32-0.317
		c0.055-0.319,0.08-0.744,0.08-0.958c0-0.159-0.133-0.267-0.293-0.267c-1.037,0.666-1.967,1.276-3.617,1.276
		c-2.207,0-3.109-1.145-3.109-3.406v-4.518c0-1.41-0.16-1.543-0.799-1.729l-0.348-0.107c-0.186-0.238-0.158-0.745,0.107-0.929
		c0.879-0.027,1.811-0.107,2.58-0.24c0.799-0.135,1.568-0.453,1.676-0.453c0.16,0,0.293,0.186,0.32,0.318
		c-0.055,0.667-0.082,1.384-0.082,2.343v4.388c0,1.274,0.186,2.391,1.887,2.391c0.746,0,1.174-0.345,1.385-0.505
		c0.186-0.133,0.293-0.529,0.293-0.795v-5.027c0-1.064-0.188-1.306-1.145-1.436l-0.371-0.055c-0.213-0.186-0.188-0.826,0.133-0.929
		c0.957-0.055,1.914-0.162,2.766-0.267c0.932-0.133,1.729-0.426,1.889-0.426c0.107,0,0.238,0.134,0.266,0.318
		c-0.027,0.478-0.08,1.359-0.08,2.343V26.604z"/>
	<path fill="#FFFFFF" d="M101.969,23.014c0-1.062,0-1.384-0.508-1.698l-0.371-0.244c-0.186-0.159-0.186-0.636,0-0.797
		c1.223-0.344,3.113-1.061,3.936-1.542c0.213,0,0.373,0.081,0.48,0.239c0,0.375-0.08,1.011-0.08,1.196
		c0,0.161,0.051,0.214,0.131,0.214c0.082,0,0.35-0.132,0.508-0.214c0.584-0.345,1.781-1.063,3.057-1.063
		c0.955,0,1.781,0.319,2.395,1.012c0.32,0.372,0.479,0.48,0.637,0.48c0.107,0,0.348-0.189,0.852-0.452
		c0.586-0.321,1.596-1.04,3.031-1.04c2.102,0,3.221,1.515,3.221,3.351v4.575c0,1.858,0.105,2.072,0.982,2.179l0.424,0.056
		c0.213,0.157,0.213,0.771-0.025,0.929c-0.824-0.053-1.834-0.078-3.113-0.078c-1.061,0-2.178,0.025-2.898,0.078
		c-0.238-0.158-0.238-0.771-0.025-0.929l0.426-0.056c0.664-0.077,0.771-0.32,0.771-1.781v-4.521c0-1.01-0.559-1.859-1.783-1.859
		c-0.744,0-1.303,0.346-1.486,0.663c-0.107,0.16-0.188,0.425-0.188,0.8v4.918c0,1.461,0.107,1.704,0.717,1.781l0.426,0.056
		c0.213,0.157,0.213,0.771-0.027,0.929c-0.822-0.053-1.676-0.078-2.871-0.078c-1.062,0-2.127,0.025-2.818,0.078
		c-0.24-0.158-0.24-0.771-0.027-0.929l0.428-0.056c0.609-0.077,0.717-0.32,0.717-1.781v-4.521c0-1.01-0.531-1.859-1.809-1.859
		c-0.691,0-1.225,0.346-1.436,0.637c-0.162,0.187-0.213,0.506-0.213,0.985v4.759c0,1.461,0.105,1.704,0.768,1.781l0.43,0.056
		c0.211,0.157,0.211,0.771-0.027,0.929c-0.826-0.053-1.676-0.078-2.951-0.078c-1.199,0-2.234,0.025-3.033,0.078
		c-0.266-0.158-0.266-0.771-0.053-0.929l0.424-0.056c0.879-0.106,0.986-0.32,0.986-2.179V23.014z"/>
	<path fill="#FFFFFF" d="M123.402,23.014c0-1.062,0-1.384-0.506-1.698l-0.371-0.244c-0.188-0.159-0.188-0.636,0-0.797
		c1.25-0.344,3.164-1.061,3.936-1.542c0.213,0,0.371,0.081,0.477,0.239c0,0.375-0.08,1.011-0.08,1.196
		c0,0.161,0.057,0.214,0.135,0.214c0.08,0,0.346-0.132,0.506-0.214c0.584-0.345,1.834-1.063,3.059-1.063
		c2.205,0,3.322,1.515,3.322,3.351v4.575c0,1.858,0.107,2.072,1.066,2.179l0.426,0.056c0.211,0.157,0.211,0.771-0.029,0.929
		c-0.824-0.053-1.941-0.078-3.217-0.078c-1.064,0-2.1,0.025-2.871,0.078c-0.238-0.158-0.238-0.771-0.027-0.929l0.479-0.081
		c0.611-0.107,0.717-0.295,0.717-1.756v-4.493c0-1.038-0.531-1.888-1.861-1.888c-0.744,0-1.277,0.346-1.488,0.637
		c-0.158,0.187-0.215,0.506-0.215,0.985v4.759c0,1.461,0.107,1.704,0.775,1.781l0.424,0.056c0.211,0.157,0.211,0.771-0.027,0.929
		c-0.824-0.053-1.676-0.078-2.951-0.078c-1.117,0-2.209,0.025-3.139,0.078c-0.238-0.158-0.238-0.771-0.025-0.929l0.424-0.056
		c0.959-0.106,1.064-0.32,1.064-2.179V23.014z"/>
	<path fill="#FFFFFF" d="M141.699,15.009c0,1.276-0.984,1.942-1.994,1.942c-1.17,0-1.861-0.795-1.861-1.888
		c0-1.173,0.928-1.94,1.994-1.94C140.953,13.124,141.699,13.945,141.699,15.009 M141.484,27.03c0,1.859,0.107,2.104,0.986,2.181
		l0.504,0.056c0.215,0.156,0.215,0.77-0.023,0.928c-0.934-0.051-1.971-0.078-3.195-0.078c-1.195,0-2.312,0.027-3.189,0.078
		c-0.24-0.158-0.24-0.771-0.025-0.928l0.504-0.056c0.879-0.077,0.984-0.321,0.984-2.181v-4.017c0-1.062,0-1.384-0.506-1.7
		l-0.373-0.242c-0.188-0.159-0.188-0.637,0-0.796c1.252-0.344,3.139-1.062,3.936-1.542c0.213,0,0.373,0.081,0.48,0.24
		c-0.053,0.798-0.082,1.968-0.082,3.164V27.03z"/>
</g>
</svg>
